<svg width="23" height="14" viewBox="0 0 23 14" fill="none" xmlns="http://www.w3.org/2000/svg">
<path d="M11.4601 4.13235C12.7109 4.13235 13.9104 4.62921 14.7948 5.51362C15.6792 6.39804 16.1761 7.59756 16.1761 8.84831C16.1761 10.0991 15.6792 11.2986 14.7948 12.183C13.9104 13.0674 12.7109 13.5643 11.4601 13.5643C10.2094 13.5643 9.00985 13.0674 8.12544 12.183C7.24102 11.2986 6.74417 10.0991 6.74417 8.84831C6.74417 7.59756 7.24102 6.39804 8.12544 5.51362C9.00985 4.62921 10.2094 4.13235 11.4601 4.13235ZM11.4601 0C16.8988 0 21.5947 3.71381 22.8975 8.91787C22.9546 9.14535 22.9189 9.38618 22.7984 9.58738C22.6779 9.78859 22.4824 9.93368 22.2549 9.99075C22.0275 10.0478 21.7866 10.0122 21.5854 9.89167C21.3842 9.77117 21.2391 9.57568 21.1821 9.3482C20.6371 7.18217 19.3844 5.26018 17.6227 3.88718C15.861 2.51417 13.6912 1.76881 11.4577 1.76935C9.22416 1.76989 7.05477 2.51631 5.29375 3.89017C3.53272 5.26402 2.28094 7.18662 1.737 9.35291C1.67592 9.57566 1.53011 9.76567 1.33074 9.88229C1.13138 9.99892 0.894301 10.0329 0.6702 9.97701C0.446099 9.9211 0.252769 9.77972 0.131556 9.58312C0.0103424 9.38651 -0.0291318 9.15028 0.0215747 8.92494C0.660909 6.37533 2.13368 4.11238 4.20605 2.49542C6.27841 0.87845 8.83157 0.000158659 11.4601 0Z" fill="#643DB4"/>
</svg>
