<svg width="25" height="25" viewBox="0 0 25 25" fill="none" xmlns="http://www.w3.org/2000/svg">
<path d="M9.66917 8.49L12.2928 4.15656L10.5535 1.2676C10.3177 0.874549 9.9787 0.678021 9.53651 0.678021C9.09432 0.678021 8.75531 0.874549 8.51948 1.2676L5.63052 6.07271L9.66917 8.49ZM21.0776 16.5083L18.454 12.1454L22.5516 9.78708L24.4382 12.9414C24.6544 13.2755 24.7723 13.6489 24.792 14.0616C24.8116 14.4743 24.7232 14.8575 24.5267 15.2112C24.3301 15.6043 24.0403 15.9187 23.657 16.1546C23.2738 16.3904 22.8562 16.5083 22.4042 16.5083H21.0776ZM17.6875 24.7625L12.9708 20.0458L17.6875 15.3292V17.6875H23.2885L21.5788 21.1071C21.3626 21.5001 21.0678 21.8146 20.6944 22.0504C20.321 22.2862 19.9083 22.4042 19.4562 22.4042H17.6875V24.7625ZM6.27906 22.4042C5.88601 22.4042 5.52734 22.301 5.20307 22.0946C4.8788 21.8883 4.63806 21.6181 4.48083 21.284C4.32361 20.9695 4.24991 20.6403 4.25974 20.2964C4.26957 19.9525 4.36292 19.6331 4.53979 19.3383L5.54208 17.6875H10.6125V22.4042H6.27906ZM3.36063 19.0435L1.44448 15.2112C1.2676 14.8575 1.18408 14.4792 1.19391 14.0763C1.20373 13.6734 1.31674 13.2951 1.53292 12.9414L2.00458 12.1454L0 10.9368L6.45594 9.31542L8.07729 15.8008L6.04323 14.5627L3.36063 19.0435ZM19.2794 8.96167L12.8234 7.34031L14.8575 6.13167L11.1726 0H15.3292C15.7419 0 16.13 0.103177 16.4936 0.309531C16.8572 0.515885 17.147 0.795937 17.3632 1.14969L18.8961 3.71437L20.9007 2.47625L19.2794 8.96167Z" fill="#643DB4"/>
</svg>
