<svg width="19" height="25" viewBox="0 0 19 25" fill="none" xmlns="http://www.w3.org/2000/svg">
<path d="M13.9023 17.165C13.2512 17.5371 12.5467 17.8314 11.7881 18.0469C11.0386 18.2597 10.2541 18.3662 9.43359 18.3662C8.61305 18.3662 7.82858 18.2597 7.0791 18.0469C6.32041 17.8314 5.616 17.5371 4.96484 17.165L4.2168 16.7373V21.8984L4.84082 21.7393L9.43359 20.5615L14.0264 21.7393L14.6504 21.8984V16.7373L13.9023 17.165ZM9.43359 1.8584C7.33722 1.8584 5.53889 2.59783 4.06836 4.06836C2.59783 5.53889 1.8584 7.33722 1.8584 9.43359C1.85846 11.5299 2.59789 13.3284 4.06836 14.7988C5.53884 16.2692 7.33735 17.0088 9.43359 17.0088C11.5299 17.0087 13.3284 16.2693 14.7988 14.7988C16.2693 13.3284 17.0087 11.5299 17.0088 9.43359C17.0088 7.33735 16.2692 5.53884 14.7988 4.06836C13.3284 2.59789 11.5299 1.85846 9.43359 1.8584ZM10.0186 8.40723L10.1299 8.75391H12.4248L10.8027 10.0439L10.5352 10.2568L10.6357 10.582L11.2051 12.4385L9.73926 11.3076L9.43457 11.0732L9.12988 11.3057L7.62695 12.4521L8.20117 10.582L8.30078 10.2588L8.03711 10.0459L6.43066 8.75391H8.73633L8.84766 8.40723L9.43262 6.58594L10.0186 8.40723ZM2.8584 15.4609L2.72949 15.3184C2.02458 14.5392 1.4761 13.6483 1.08496 12.6426C0.695923 11.6422 0.50003 10.5736 0.5 9.43359C0.5 6.92993 1.36275 4.8267 3.09473 3.09473C4.8267 1.36275 6.92993 0.5 9.43359 0.5C11.937 0.50006 14.0396 1.36296 15.7715 3.09473C17.5035 4.8267 18.3662 6.92993 18.3662 9.43359C18.3662 10.5736 18.1703 11.6422 17.7812 12.6426C17.3901 13.6482 16.8426 14.5393 16.1377 15.3184L16.0088 15.4609V24.0684L9.5918 21.9297L9.43359 21.877L9.27539 21.9297L2.8584 24.0684V15.4609Z" fill="#643DB4" stroke="black"/>
</svg>
